<svg xmlns="http://www.w3.org/2000/svg" width="800" height="604"><rect width="800" height="604" x="0" y="0" fill="#FFFFFF" id="backgorund"/><g id="viz"><clipPath id="serieClipPath"><rect x="-70" y="-10" width="800" height="604"/></clipPath><g transform="translate(0,0)"><g transform="translate(70,10)" clip-path="url(#serieClipPath)"><g id="axis"><g transform="translate(0,574)" fill="none" font-size="10" font-family="sans-serif" text-anchor="middle"><path class="domain" stroke="currentColor" d="M0.5,6V0.5H715.5V6"/><g class="tick" opacity="1" transform="translate(0.5,0)"><line stroke="currentColor" y2="6"/><text fill="currentColor" y="9" dy="0.71em">100</text></g><g class="tick" opacity="1" transform="translate(79.94444444444444,0)"><line stroke="currentColor" y2="6"/><text fill="currentColor" y="9" dy="0.71em">101</text></g><g class="tick" opacity="1" transform="translate(159.38888888888889,0)"><line stroke="currentColor" y2="6"/><text fill="currentColor" y="9" dy="0.71em">102</text></g><g class="tick" opacity="1" transform="translate(238.83333333333331,0)"><line stroke="currentColor" y2="6"/><text fill="currentColor" y="9" dy="0.71em">103</text></g><g class="tick" opacity="1" transform="translate(318.27777777777777,0)"><line stroke="currentColor" y2="6"/><text fill="currentColor" y="9" dy="0.71em">104</text></g><g class="tick" opacity="1" transform="translate(397.72222222222223,0)"><line stroke="currentColor" y2="6"/><text fill="currentColor" y="9" dy="0.71em">105</text></g><g class="tick" opacity="1" transform="translate(477.16666666666663,0)"><line stroke="currentColor" y2="6"/><text fill="currentColor" y="9" dy="0.71em">106</text></g><g class="tick" opacity="1" transform="translate(556.6111111111111,0)"><line stroke="currentColor" y2="6"/><text fill="currentColor" y="9" dy="0.71em">107</text></g><g class="tick" opacity="1" transform="translate(636.0555555555555,0)"><line stroke="currentColor" y2="6"/><text fill="currentColor" y="9" dy="0.71em">108</text></g><g class="tick" opacity="1" transform="translate(715.5,0)"><line stroke="currentColor" y2="6"/><text fill="currentColor" y="9" dy="0.71em">109</text></g><text x="715" dy="-5" text-anchor="end" style="font-family: Arial, sans-serif; font-size: 12px; fill: rgb(123, 123, 123); font-weight: bold;">年別</text></g><g transform="translate(0,0)" fill="none" font-size="10" font-family="sans-serif" text-anchor="end"><path class="domain" stroke="currentColor" d="M0.5,574.5V0.5"/><g class="tick" opacity="1" transform="translate(0,574.5)"><line stroke="currentColor" x2="-6"/><text fill="currentColor" x="-9" dy="0.32em">1,000,000</text></g><g class="tick" opacity="1" transform="translate(0,522.3181818181818)"><line stroke="currentColor" x2="-6"/><text fill="currentColor" x="-9" dy="0.32em">2,000,000</text></g><g class="tick" opacity="1" transform="translate(0,470.1363636363636)"><line stroke="currentColor" x2="-6"/><text fill="currentColor" x="-9" dy="0.32em">3,000,000</text></g><g class="tick" opacity="1" transform="translate(0,417.95454545454544)"><line stroke="currentColor" x2="-6"/><text fill="currentColor" x="-9" dy="0.32em">4,000,000</text></g><g class="tick" opacity="1" transform="translate(0,365.77272727272725)"><line stroke="currentColor" x2="-6"/><text fill="currentColor" x="-9" dy="0.32em">5,000,000</text></g><g class="tick" opacity="1" transform="translate(0,313.59090909090907)"><line stroke="currentColor" x2="-6"/><text fill="currentColor" x="-9" dy="0.32em">6,000,000</text></g><g class="tick" opacity="1" transform="translate(0,261.40909090909093)"><line stroke="currentColor" x2="-6"/><text fill="currentColor" x="-9" dy="0.32em">7,000,000</text></g><g class="tick" opacity="1" transform="translate(0,209.22727272727272)"><line stroke="currentColor" x2="-6"/><text fill="currentColor" x="-9" dy="0.32em">8,000,000</text></g><g class="tick" opacity="1" transform="translate(0,157.04545454545453)"><line stroke="currentColor" x2="-6"/><text fill="currentColor" x="-9" dy="0.32em">9,000,000</text></g><g class="tick" opacity="1" transform="translate(0,104.86363636363633)"><line stroke="currentColor" x2="-6"/><text fill="currentColor" x="-9" dy="0.32em">10,000,000</text></g><g class="tick" opacity="1" transform="translate(0,52.6818181818182)"><line stroke="currentColor" x2="-6"/><text fill="currentColor" x="-9" dy="0.32em">11,000,000</text></g><g class="tick" opacity="1" transform="translate(0,0.5)"><line stroke="currentColor" x2="-6"/><text fill="currentColor" x="-9" dy="0.32em">12,000,000</text></g><text x="4" text-anchor="start" dominant-baseline="hanging" style="font-family: Arial, sans-serif; font-size: 12px; fill: rgb(123, 123, 123); font-weight: bold;">小計</text></g></g><g id="viz"><g><path d="M0,308.525834909091L13.24074074074074,300.1602686055556C26.48148148148148,291.79470230202026,52.96296296296296,275.06356969494954,79.44444444444444,262.17040633636367C105.92592592592592,249.27724297777777,132.40740740740742,240.22204886767676,158.88888888888889,222.37641959696973C185.37037037037035,204.5307903262626,211.85185185185185,177.8947258949495,238.33333333333334,161.3444637318182C264.8148148148148,144.79420156868687,291.2962962962963,138.3297416737374,317.77777777777777,133.92841128333336C344.2592592592593,129.52708089292932,370.7407407407407,127.18888000707074,397.2222222222222,126.33782789090913C423.70370370370364,125.4867757747475,450.18518518518516,126.12287242828286,476.6666666666667,124.70547190606062C503.1481481481481,123.28807138383841,529.6296296296296,119.81717368585862,556.1111111111111,112.86967800606062C582.5925925925926,105.92218232626264,609.074074074074,95.49808866464646,635.5555555555555,168.48746366666668C662.0370370370371,241.47683866868684,688.5185185185186,397.87968233434344,701.7592592592592,476.08110416717165L715,554.282526" stroke="#539609" fill="none"/><text font-family="sans-serif" font-size="10" class="labels" x="635.5555555555555" y="7.091248181818175" dx="0" dy="-4" text-anchor="middle"/></g></g></g><text y="4" x="4" style="font-family: Arial, sans-serif; font-size: 12px; fill: black; font-weight: bold; dominant-baseline: hanging;"/></g><g id="grid"><rect x="0" y="0" width="800" height="604" fill="none" stroke="#ccc"/></g></g></svg>